<svg width="80" height="80" viewBox="0 0 80 80" fill="none" xmlns="http://www.w3.org/2000/svg">
<g clip-path="url(#clip0_50_278)">
<path d="M71.7596 59.9002H65.8671C64.3942 59.9002 63.2 58.1208 63.2 55.9257C63.2 53.7306 64.394 51.9511 65.8671 51.9511H71.7596C73.3622 51.9511 74.6658 50.0085 74.6658 47.6203V24.9801C74.6658 22.5919 73.3622 20.6493 71.7596 20.6493H65.8671C64.3942 20.6493 63.2 18.8698 63.2 16.6747C63.2 14.4799 64.394 12.7002 65.8671 12.7002H71.7596C76.3034 12.7002 79.9999 18.2087 79.9999 24.9799V47.6201C79.9999 54.3915 76.3034 59.9002 71.7596 59.9002Z" fill="#AC4123" fill-opacity="0.98"/>
<path d="M65.8366 65.2001H14.1633C12.6925 65.2001 11.5 64.0054 11.5 62.5317V5.76851C11.5 4.29492 12.6924 3.1001 14.1633 3.1001H65.8367C67.3075 3.1001 68.5 4.29476 68.5 5.76851V62.5315C68.4999 64.0053 67.3075 65.2001 65.8366 65.2001Z" fill="#DAA06B"/>
<path d="M65.8702 3.1377H40V65.1982H65.8702C67.3428 65.1982 68.5369 64.0043 68.5369 62.5315V5.80426C68.5369 4.3316 67.343 3.1377 65.8702 3.1377Z" fill="#DAA06B"/>
<path d="M54.7255 76.8621H25.2747C17.6467 76.8621 11.4631 70.6785 11.4631 63.0505V59.8647H68.5369V63.0505C68.5369 70.6785 62.3533 76.8621 54.7255 76.8621Z" fill="#AC4123"/>
<path d="M40 59.8647V76.8619H54.7255C62.3534 76.8619 68.5369 70.6783 68.5369 63.0505V59.8647H40Z" fill="#AC4123" fill-opacity="0.98"/>
<path d="M77.3333 76.8618H2.66672C1.19391 76.8618 0 75.6677 0 74.195C0 72.7224 1.19391 71.5283 2.66672 71.5283H77.3334C78.8061 71.5283 80.0001 72.7222 80.0001 74.195C80.0001 75.6678 78.8061 76.8618 77.3333 76.8618Z" fill="#89986A"/>
<path d="M77.3333 71.5283H40V76.8616H77.3333C78.8059 76.8616 80 75.6677 80 74.1949C80 72.7221 78.8061 71.5283 77.3333 71.5283Z" fill="#89986A" fill-opacity="0.98"/>
<path d="M39.9 25.0664C38.6298 25.0664 37.4798 25.5415 36.6478 26.3087L35.3 27.5425L33.9522 26.3087C33.1201 25.5415 31.9701 25.0664 30.7 25.0664C28.1596 25.0664 26.1 26.9649 26.1 29.3064C26.1 30.4771 26.9199 31.5703 27.7531 32.3374L34.4869 38.5453C34.936 38.9592 35.6639 38.9592 36.113 38.5453L42.829 32.3539C43.6622 31.5867 44.5 30.4771 44.5 29.3064C44.5 26.9649 42.4403 25.0664 39.9 25.0664ZM35.3 36.2957L29.3703 30.8301C28.9537 30.4472 28.4 29.8923 28.4 29.3064C28.4 28.1356 29.4298 27.1864 30.7 27.1864C31.3356 27.1864 31.9106 27.4236 32.3261 27.8075L34.4869 29.7908C34.936 30.2047 35.6639 30.2047 36.113 29.7908L38.2739 27.8075C38.6893 27.4236 39.2643 27.1864 39.9 27.1864C41.1701 27.1864 42.2 28.1356 42.2 29.3064C42.2 29.8923 41.6462 30.4472 41.2297 30.8301L35.3 36.2957Z" fill="#AC4123"/>
<path d="M35.3 36.2958L29.3703 30.8302C28.9537 30.4473 28.4 29.8924 28.4 29.3065C28.4 28.1357 29.4298 27.1865 30.7 27.1865C31.3357 27.1865 31.9107 27.4237 32.3261 27.8077L34.487 29.7909C34.936 30.2049 35.664 30.2049 36.1131 29.7909L38.2739 27.8077C38.6894 27.4237 39.2644 27.1865 39.9 27.1865C41.1702 27.1865 42.2 28.1357 42.2 29.3065C42.2 29.8924 41.6463 30.4473 41.2297 30.8302L35.3 36.2958Z" fill="#AC4123"/>
<path d="M50.5301 24.1364H53.5402V33.9933C53.5402 38.4352 51.7178 39.9858 48.8064 39.9858C48.0938 39.9858 47.1822 39.8471 46.5884 39.6155L46.9254 36.7692C47.3411 36.9314 47.8763 37.0467 48.4702 37.0467C49.7381 37.0467 50.5301 36.3755 50.5301 33.9699V24.1364ZM56.1538 36.1224C56.9459 36.608 58.2138 37.0946 59.5009 37.0946C60.8876 37.0946 61.6202 36.4233 61.6202 35.3827C61.6202 34.4339 60.9863 33.8555 59.3821 33.2077C57.1641 32.2824 55.6988 30.848 55.6988 28.5567C55.6988 25.8961 57.6199 23.8833 60.7488 23.8833C62.2734 23.8833 63.3632 24.2302 64.1552 24.6699L63.482 27.4927C62.9668 27.1917 61.9966 26.7521 60.7094 26.7521C59.4022 26.7521 58.7683 27.4692 58.7683 28.2558C58.7683 29.2505 59.5009 29.6902 61.2439 30.4767C63.6007 31.4949 64.6897 32.9292 64.6897 35.1502C64.6897 37.7649 62.9868 39.9858 59.3228 39.9858C57.7981 39.9858 56.2926 39.5002 55.5399 39.0136L56.1538 36.1224Z" fill="#444444"/>
<path d="M19.1266 38.0223V23.2423H21.8066V38.0223H19.1266ZM16.9266 38.3223V37.8223H24.0066V38.3223H16.9266ZM16.9266 23.7423V23.2423H24.0066V23.7423H16.9266Z" fill="#444444"/>
</g>
<defs>
<clipPath id="clip0_50_278">
<rect width="80" height="80" fill="white"/>
</clipPath>
</defs>
</svg>
